<svg width="80" height="24" viewBox="0 0 80 24" fill="none" xmlns="http://www.w3.org/2000/svg">
<g clip-path="url(#clip0_2698_958)">
<g clip-path="url(#clip1_2698_958)">
<g clip-path="url(#clip2_2698_958)">
<g clip-path="url(#clip3_2698_958)">
<g clip-path="url(#clip4_2698_958)">
<g clip-path="url(#clip5_2698_958)">
<g clip-path="url(#clip6_2698_958)">
<g clip-path="url(#clip7_2698_958)">
<path d="M27.8005 9.65222C27.4238 9.65222 27.146 9.76192 26.9673 9.98133C26.7868 10.2007 26.6965 10.5913 26.6965 11.1529V12.7063H28.8782V11.1266C28.8782 10.758 28.8344 10.4614 28.7468 10.2367C28.6591 10.0138 28.5391 9.86022 28.3867 9.77597C28.2324 9.69347 28.0371 9.65222 27.8005 9.65222ZM28.8782 15.2207V14.523H26.6965V15.2207C26.6965 15.6683 26.5783 15.9974 26.3417 16.208C26.1051 16.4186 25.6977 16.5239 25.1195 16.5239C24.8741 16.5239 24.6726 16.4888 24.5149 16.4186C24.3572 16.3484 24.2196 16.2299 24.1022 16.0632C23.9831 15.8964 23.8955 15.6525 23.8394 15.3313C23.7816 15.0118 23.7377 14.6257 23.708 14.1728C23.6764 13.7217 23.6606 13.1495 23.6606 12.4562C23.6606 11.8506 23.7246 11.2951 23.8525 10.7896C23.9787 10.2859 24.1495 9.85846 24.3651 9.50742C24.5789 9.15637 24.8216 8.84657 25.0932 8.57802C25.3648 8.31123 25.6609 8.10323 25.9816 7.95404C26.3005 7.80484 26.6116 7.69251 26.9147 7.61703C27.2161 7.54332 27.5201 7.50646 27.8268 7.50646C28.1948 7.50646 28.5584 7.55648 28.9176 7.65653C29.2768 7.75833 29.6404 7.9321 30.0084 8.17783C30.3764 8.42356 30.6988 8.7281 30.9757 9.09143C31.2508 9.45651 31.476 9.92867 31.6512 10.5079C31.8265 11.0871 31.9141 11.7366 31.9141 12.4562C31.9141 13.6147 31.8729 14.4721 31.7905 15.0285C31.7064 15.5867 31.5662 15.9754 31.37 16.1948C31.172 16.4142 30.8671 16.5239 30.4553 16.5239C29.877 16.5239 29.4696 16.4186 29.233 16.208C28.9965 15.9974 28.8782 15.6683 28.8782 15.2207ZM33.018 8.41479C33.018 8.12517 33.1424 7.88646 33.3913 7.69865C33.6419 7.50909 33.995 7.41431 34.4506 7.41431C35.4056 7.41431 35.8831 7.7478 35.8831 8.41479C35.8831 8.78338 35.7622 9.04228 35.5203 9.19148C35.2803 9.34067 34.9237 9.41527 34.4506 9.41527C34.0388 9.41527 33.6971 9.33628 33.4254 9.17831C33.1538 9.02034 33.018 8.76583 33.018 8.41479ZM35.8699 11.6927V15.1154C35.8699 15.6419 35.7604 16.0079 35.5414 16.2133C35.3223 16.4204 34.9368 16.5239 34.3848 16.5239C33.8679 16.5239 33.5148 16.4028 33.3256 16.1606C33.1381 15.9201 33.0443 15.5235 33.0443 14.9706V11.7322C33.0443 11.2846 33.1644 10.9248 33.4044 10.6527C33.6462 10.3806 33.9687 10.2446 34.3717 10.2446C34.8448 10.2446 35.2128 10.3473 35.4757 10.5527C35.7385 10.7598 35.8699 11.1398 35.8699 11.6927ZM46.4732 9.78386V14.5493C46.4732 15.0496 46.4119 15.4462 46.2892 15.7394C46.1666 16.0342 45.9983 16.2387 45.7846 16.3528C45.569 16.4669 45.286 16.5239 44.9356 16.5239C44.4186 16.5239 44.0445 16.3853 43.8132 16.108C43.5801 15.8324 43.4592 15.3436 43.4505 14.6415L43.4242 9.78386H42.3071C41.7551 9.78386 41.3416 9.6961 41.0664 9.52058C40.7896 9.34506 40.6511 9.0335 40.6511 8.58592C40.6511 8.31386 40.7063 8.09885 40.8167 7.94088C40.9254 7.7829 41.0892 7.67057 41.3083 7.60387C41.5273 7.53893 41.8208 7.50646 42.1888 7.50646H47.8137C48.3044 7.50646 48.6592 7.59422 48.8783 7.76974C49.0973 7.94526 49.2068 8.24804 49.2068 8.67807C49.2068 8.96768 49.1438 9.19323 49.0176 9.35471C48.8897 9.51795 48.7206 9.63028 48.5103 9.69172C48.3 9.75315 48.0284 9.78386 47.6955 9.78386H46.4732ZM51.9405 16.6029C50.8715 16.6029 49.9884 16.3265 49.291 15.7736C48.5953 15.2207 48.2474 14.4659 48.2474 13.5093C48.2474 12.4738 48.5909 11.6549 49.2778 11.0529C49.9665 10.4526 50.854 10.1525 51.9405 10.1525C52.9656 10.1525 53.7164 10.3341 54.1931 10.6975C54.6715 11.0625 54.9106 11.561 54.9106 12.1929C54.9106 12.3158 54.8949 12.4343 54.8633 12.5483C54.8335 12.6624 54.7854 12.7739 54.7188 12.8827C54.6539 12.9933 54.5663 13.0942 54.4559 13.1855C54.3473 13.2785 54.2229 13.3619 54.0827 13.4356C53.9425 13.5111 53.776 13.5681 53.5833 13.6068C53.3905 13.6471 53.1846 13.6673 52.9656 13.6673L51.1125 13.6805C51.2001 13.9613 51.3578 14.1825 51.5856 14.3439C51.8134 14.5072 52.1026 14.5888 52.453 14.5888C52.8298 14.5888 53.2153 14.5405 53.6095 14.444C53.776 14.4001 53.9574 14.3299 54.1536 14.2334C54.3517 14.1368 54.4945 14.0886 54.5821 14.0886C54.731 14.0886 54.8467 14.1324 54.929 14.2202C55.0132 14.308 55.0552 14.4177 55.0552 14.5493C55.0552 14.7073 54.9851 14.8977 54.8449 15.1206C54.7047 15.3453 54.5094 15.5691 54.2588 15.792C54.01 16.0167 53.6796 16.208 53.2678 16.366C52.8561 16.5239 52.4136 16.6029 51.9405 16.6029ZM51.0468 12.838C51.6513 12.8292 51.9799 12.8248 52.0325 12.8248C52.1639 12.8248 52.2603 12.7458 52.3216 12.5878C52.3654 12.4738 52.3873 12.3158 52.3873 12.1139C52.3873 11.561 52.2208 11.2846 51.8879 11.2846C51.7652 11.2846 51.6443 11.3504 51.5252 11.482C51.4078 11.6137 51.3052 11.7997 51.2176 12.0402C51.13 12.2824 51.0731 12.5483 51.0468 12.838ZM58.4985 16.6029C57.8064 16.6029 57.2325 16.3195 56.7769 15.7525C56.3213 15.1873 56.0935 14.4133 56.0935 13.4304C56.0935 12.4299 56.3186 11.633 56.769 11.0397C57.2211 10.4482 57.7976 10.1525 58.4985 10.1525C59.2082 10.1525 59.8653 10.4026 60.4699 10.9028C60.7064 10.464 61.0876 10.2446 61.6133 10.2446C62.0864 10.2446 62.4544 10.3473 62.7172 10.5527C62.9801 10.7598 63.1115 11.1398 63.1115 11.6927V15.1154C63.1115 15.6419 63.002 16.0079 62.7829 16.2133C62.5639 16.4204 62.1784 16.5239 61.6264 16.5239C61.0481 16.5239 60.667 16.3616 60.483 16.0369C59.9223 16.4142 59.2608 16.6029 58.4985 16.6029ZM60.2859 14.6283V12.1666C60.1369 11.9121 59.9442 11.7848 59.7076 11.7848C59.4798 11.7848 59.2958 11.9516 59.1556 12.2851C59.0155 12.6186 58.9454 13.0003 58.9454 13.4304C58.9454 13.8341 59.0111 14.1939 59.1425 14.5098C59.2739 14.8258 59.4579 14.9837 59.6945 14.9837C59.9398 14.9837 60.1369 14.8653 60.2859 14.6283ZM68.2344 11.6005C68.2344 11.3987 68.1214 11.2977 67.8953 11.2977C67.7271 11.2977 67.5773 11.3899 67.4459 11.5742C67.3144 11.7585 67.2137 11.9884 67.1436 12.264C67.0753 12.5413 67.0411 12.8292 67.0411 13.1276C67.0411 13.5664 67.1743 13.9218 67.4406 14.1939C67.707 14.4659 68.0679 14.602 68.5235 14.602C68.9704 14.602 69.3559 14.5493 69.6801 14.444C69.8115 14.4089 69.9718 14.3431 70.1611 14.2465C70.3486 14.15 70.4818 14.1017 70.5606 14.1017C70.6833 14.1017 70.784 14.1237 70.8629 14.1675C70.9435 14.2114 70.9987 14.2641 71.0285 14.3255C71.0583 14.387 71.0732 14.4528 71.0732 14.523C71.0732 14.6458 71.032 14.795 70.9496 14.9706C70.8655 15.1461 70.7359 15.3304 70.5606 15.5235C70.3854 15.7165 70.1821 15.8938 69.9508 16.0553C69.7195 16.2185 69.4321 16.3528 69.0887 16.4581C68.747 16.5634 68.3877 16.6161 68.011 16.6161C66.9263 16.6161 66.0335 16.3238 65.3326 15.7394C64.6316 15.1566 64.2812 14.3562 64.2812 13.3382C64.2812 12.6888 64.4406 12.121 64.7596 11.6348C65.0785 11.1468 65.5183 10.7773 66.0791 10.5263C66.6398 10.2771 67.2838 10.1525 68.011 10.1525C68.7032 10.1525 69.2753 10.2332 69.7274 10.3947C70.1777 10.5579 70.4993 10.7756 70.692 11.0476C70.8866 11.3197 70.9838 11.6444 70.9838 12.0218C70.9838 12.1885 70.9505 12.3597 70.8839 12.5352C70.8191 12.7107 70.7183 12.8862 70.5816 13.0618C70.445 13.2373 70.2452 13.3795 69.9824 13.4883C69.7195 13.5989 69.4128 13.6541 69.0624 13.6541C68.9047 13.6541 68.7759 13.6454 68.676 13.6278C68.5744 13.6103 68.4692 13.5725 68.3606 13.5146C68.2502 13.4584 68.1687 13.3645 68.1161 13.2329C68.0636 13.1012 68.0373 12.9345 68.0373 12.7326C68.0373 12.5571 68.0706 12.3447 68.1372 12.0955C68.202 11.8445 68.2344 11.6795 68.2344 11.6005ZM76.3433 15.4313L76.3301 12.9959C76.3301 12.4957 76.1374 12.2456 75.7519 12.2456C75.6818 12.2456 75.6187 12.2543 75.5626 12.2719C75.5048 12.2895 75.4522 12.3114 75.4049 12.3377C75.3558 12.3641 75.312 12.4009 75.2735 12.4483C75.2332 12.4974 75.1981 12.5501 75.1683 12.6063C75.1368 12.6642 75.1149 12.7326 75.1026 12.8116C75.0886 12.8906 75.0816 12.9784 75.0816 13.0749V14.523C75.0816 15.2426 74.966 15.7534 74.7346 16.0553C74.5016 16.359 74.1485 16.5108 73.6754 16.5108C73.1847 16.5108 72.8255 16.3721 72.5977 16.0948C72.3699 15.8192 72.256 15.3304 72.256 14.6283L72.2297 9.02034C72.2297 8.47622 72.3611 8.07691 72.624 7.8224C72.8868 7.56789 73.2373 7.44063 73.6754 7.44063C74.1397 7.44063 74.4902 7.53717 74.7268 7.73025C74.9633 7.92332 75.0816 8.31386 75.0816 8.90186V10.8107C75.73 10.4157 76.5185 10.2183 77.4472 10.2183C77.8678 10.2183 78.2051 10.3254 78.4592 10.5395C78.7133 10.7554 78.9017 11.0959 79.0243 11.561C79.147 12.0262 79.2083 12.6361 79.2083 13.3909C79.2083 13.777 79.2022 14.1105 79.1899 14.3913C79.1759 14.6722 79.1557 14.9284 79.1295 15.1601C79.1032 15.3936 79.0638 15.5849 79.0112 15.7341C78.9586 15.8833 78.8973 16.0105 78.8272 16.1159C78.7571 16.2212 78.6677 16.3019 78.5591 16.3581C78.4487 16.416 78.3278 16.4581 78.1964 16.4844C78.0649 16.5108 77.9072 16.5239 77.7232 16.5239C77.2326 16.5239 76.8804 16.4335 76.6666 16.2528C76.451 16.0737 76.3433 15.7999 76.3433 15.4313Z" fill="white"/>
</g>
</g>
</g>
</g>
<g clip-path="url(#clip8_2698_958)">
<g clip-path="url(#clip9_2698_958)">
<path fill-rule="evenodd" clip-rule="evenodd" d="M20.0832 14.5155L20.0965 14.4219C19.9362 14.4398 19.7625 14.4486 19.5753 14.4486H16.7567C16.0888 14.4219 15.4475 14.3863 14.8327 14.3416C14.3606 14.3148 13.9644 14.2923 13.6438 14.2747C13.7774 14.4261 13.7998 14.9303 13.7106 15.7868C13.6838 16.1079 13.5949 17.388 13.4434 19.6272C13.4346 19.7878 13.4124 20.0865 13.3766 20.5235C13.3499 20.8802 13.3368 21.157 13.3368 21.3534C13.328 21.5943 13.3456 21.8485 13.3902 22.1161L13.43 22.2901L13.4837 22.3969C13.5372 22.4951 13.5951 22.562 13.6574 22.5976C13.8086 22.7047 14.0002 22.7983 14.2316 22.8789L15.6343 23.1599C15.6431 23.1599 15.7545 23.169 15.9683 23.1867C16.093 23.2043 16.1999 23.2089 16.2892 23.1998C16.5831 23.1998 17.0106 23.173 17.5714 23.1198C17.9991 23.093 18.2172 23.0796 18.2262 23.0796L18.8007 23.066C18.9965 23.0304 19.1256 22.9857 19.1878 22.9321C19.2592 22.8874 19.3393 22.7849 19.4286 22.6246C19.4999 22.4461 19.5622 22.1341 19.6156 21.6879L19.8828 17.1517C19.9806 15.6974 20.0474 14.8187 20.0832 14.5155ZM20.4038 11.7322H20.3768C20.3325 11.7231 20.2608 11.7188 20.1633 11.7188L18.3729 11.8125C16.948 11.8572 16.0351 11.866 15.6343 11.8393C15.3228 11.8125 15.0999 11.7723 14.9663 11.7188C14.8685 11.6741 14.7884 11.6342 14.7261 11.5984C14.6193 11.8837 14.4723 12.1783 14.2853 12.4816C14.1071 12.7939 13.8979 13.1105 13.6574 13.4314C13.5238 13.6366 13.3632 13.8507 13.1762 14.0739C13.5682 14.0472 14.1292 14.0204 14.8597 13.9937L19.5622 13.8465C19.874 13.8285 20.1323 13.7929 20.337 13.7394C20.4794 13.6947 20.5772 13.6503 20.6309 13.6056C20.6931 13.5432 20.7423 13.4627 20.7776 13.3645C20.8134 13.2218 20.831 13.088 20.8313 12.963C20.8313 12.8292 20.8179 12.682 20.7909 12.5217C20.7196 12.1559 20.6085 11.9062 20.457 11.7723L20.4172 11.7456L20.4038 11.7322ZM20.5238 11.0631L20.6977 11.1033L20.7378 11.1434L20.9245 11.2639C21.0851 11.4153 21.2142 11.6118 21.3119 11.8526C21.3833 12.0579 21.4322 12.2495 21.4589 12.4278C21.4859 12.6419 21.4947 12.8338 21.4859 13.0034C21.4859 13.2087 21.4546 13.4003 21.3921 13.5788C21.3208 13.8018 21.1963 13.9803 21.0183 14.1141C20.8671 14.2211 20.6889 14.3014 20.4839 14.3549C20.3859 14.3817 20.2836 14.3996 20.1764 14.4085L20.1898 14.5155C20.2256 15.0684 20.2432 15.9562 20.2432 17.1782L20.2034 19.935C20.2034 20.5505 20.1855 21.157 20.15 21.7548C20.1142 22.2277 20.0431 22.6024 19.9362 22.8789C19.8203 23.1374 19.6824 23.325 19.5218 23.4409C19.4505 23.4944 19.3351 23.5434 19.1745 23.5881C18.9965 23.6328 18.8851 23.655 18.8405 23.655C18.6893 23.6727 18.4798 23.6818 18.2129 23.6818L17.6117 23.735C16.9168 23.7974 16.4716 23.8332 16.2758 23.8423C16.1777 23.8512 16.053 23.8469 15.9015 23.829L14.7929 23.6951C14.5167 23.6505 14.2586 23.5969 14.0181 23.5343C13.6796 23.4096 13.4124 23.2758 13.2165 23.1329C13.0741 23.017 12.9582 22.8832 12.8692 22.7314C12.8069 22.6067 12.7711 22.5219 12.7621 22.4774L12.7086 22.2366C12.6555 21.9422 12.6285 21.6433 12.6285 21.34C12.6819 20.5639 12.7177 19.9751 12.7356 19.5737C12.8334 17.8341 12.9184 16.5495 12.9894 15.7198C13.025 15.4075 13.0872 15.0998 13.1762 14.7965C13.2566 14.5112 13.341 14.3282 13.43 14.2479C13.2876 14.2391 13.1628 14.23 13.0562 14.2211C13.0383 14.2391 13.0204 14.2567 13.0028 14.2747C12.8516 14.4352 12.6864 14.5645 12.5082 14.6627C12.4994 15.1177 12.4727 15.7554 12.4281 16.576C12.3925 17.4056 12.3346 18.1641 12.2547 18.8508L11.9071 22.1962C11.8181 22.6423 11.7067 22.9945 11.5731 23.2536C11.4841 23.4497 11.3505 23.6237 11.1723 23.7754C10.9944 23.9448 10.767 24.0385 10.491 24.0564C10.313 24.0741 10.0726 24.0297 9.7696 23.9226C9.47569 23.8065 9.27531 23.6237 9.16843 23.374C9.06183 23.1511 9.00812 22.9011 9.00839 22.6246C8.99957 22.4732 9.01293 22.2366 9.04847 21.9154L9.80994 17.5665C9.89891 17.1562 9.94808 16.9062 9.95663 16.8171C9.99243 16.5227 9.97426 16.3175 9.90319 16.2016C9.89437 16.166 9.86338 16.1213 9.80994 16.0678L9.75624 16.0407C9.75624 16.0943 9.7517 16.1569 9.74315 16.2283C9.72551 16.5136 9.66299 16.8393 9.55585 17.2052C9.38672 17.776 9.15962 18.4496 8.8748 19.2258C8.71449 19.6628 8.48284 20.2829 8.18012 21.0858L7.88595 21.9823C7.75236 22.4014 7.6364 22.7049 7.53888 22.8923C7.432 23.0796 7.33395 23.2314 7.24497 23.3472C7.0844 23.4987 6.91981 23.6058 6.75042 23.6681C6.60801 23.7305 6.41644 23.7618 6.17624 23.7621C5.98921 23.7444 5.82436 23.7131 5.68168 23.6681L5.42786 23.5747C5.31217 23.5212 5.23201 23.4677 5.18766 23.4141C5.03643 23.2803 4.93811 23.1018 4.89349 22.8789C4.84032 22.638 4.86249 22.3214 4.96028 21.9285L6.1228 17.8609C6.95107 15.0329 7.62785 12.7446 8.15313 10.9962L8.96805 8.22628L9.07519 7.8516L8.88789 9.32355L8.50047 11.1167C8.09088 12.7939 7.48972 15.1043 6.69698 18.0479L5.60179 22.1161C5.53046 22.3838 5.51282 22.5933 5.54809 22.7451C5.58389 22.8342 5.61943 22.8877 5.65523 22.9056L5.74848 22.9726L5.89543 23.0261C6.0381 23.0617 6.14925 23.0796 6.22941 23.0796C6.32747 23.0796 6.42098 23.0662 6.51022 23.0395C6.59919 22.9859 6.67053 22.9279 6.72397 22.8652C6.7953 22.7761 6.85756 22.6736 6.91099 22.5577C6.99997 22.3972 7.1023 22.1295 7.21799 21.7548L7.52552 20.8449C7.82824 20.0332 8.05107 19.4131 8.19348 18.9846C8.46948 18.2085 8.69204 17.5485 8.86144 17.0045C8.95041 16.6833 9.05301 16.3755 9.16843 16.0811C9.20424 15.9829 9.23977 15.8981 9.27557 15.8269C9.25794 15.8181 9.24458 15.8092 9.23523 15.8001C9.12862 15.7554 9.07492 15.6976 9.07519 15.6262C9.06637 15.5459 9.11526 15.479 9.22187 15.4255C9.32874 15.3719 9.47142 15.3406 9.64963 15.3318L9.93017 15.3717L10.2107 15.4924C10.3801 15.5994 10.4913 15.7244 10.5447 15.867C10.6695 16.1258 10.7141 16.4738 10.6783 16.9105C10.6516 17.1246 10.5939 17.4011 10.5044 17.7404L9.95663 20.671C9.92109 21.0009 9.84548 21.4516 9.72979 22.0225C9.69398 22.308 9.68062 22.5088 9.68944 22.6246C9.68944 22.8208 9.7207 22.9771 9.78322 23.093C9.82758 23.1912 9.91227 23.2715 10.0368 23.3336L10.2642 23.4005L10.3708 23.4141H10.4645C10.607 23.3962 10.7141 23.3518 10.7852 23.2803C10.9009 23.1821 10.981 23.0705 11.0254 22.9458C11.1501 22.7229 11.2434 22.4282 11.3059 22.0624C11.3505 21.8571 11.3997 21.5493 11.4531 21.1393L11.7735 18.7708C11.9162 17.6735 12.0139 16.9242 12.0676 16.5227C12.1566 15.7734 12.241 15.18 12.3215 14.743C12.2055 14.7786 12.0898 14.8008 11.9739 14.8099C11.5287 14.8546 11.1769 14.7476 10.9188 14.4888C10.6604 14.23 10.5578 13.9045 10.6115 13.5119C10.6115 13.4316 10.6249 13.3559 10.6516 13.2844L10.7047 13.0703L10.852 12.7224C10.8608 12.6957 10.9543 12.4816 11.1325 12.0801C11.2749 11.7946 11.471 11.4512 11.7203 11.0498L12.2277 10.2335C12.2811 10.1444 12.3257 10.0416 12.3613 9.92571C12.3701 9.84543 12.3613 9.75176 12.3348 9.64471C12.2726 9.4753 12.1836 9.319 12.0676 9.17636L11.6535 8.58758C11.6177 8.55198 11.5597 8.47598 11.4798 8.36009L11.4665 8.30657L11.5063 8.33333L11.7337 8.52067C11.9116 8.68125 12.0853 8.8552 12.2547 9.04254C12.415 9.22105 12.5352 9.39046 12.6154 9.55077L12.6688 9.75149C12.6776 9.77825 12.6822 9.85854 12.6822 9.99262C12.6555 10.1353 12.6066 10.2779 12.5352 10.4206C12.5176 10.4741 12.446 10.6124 12.3215 10.8356L12.081 11.2772C11.8226 11.759 11.6492 12.1023 11.5597 12.3076C11.4173 12.6555 11.3372 12.8651 11.3195 12.9365L11.1993 13.2577L11.159 13.4183L11.1459 13.5788C11.1282 13.8018 11.1859 13.9714 11.3195 14.0873C11.4798 14.2211 11.6757 14.2658 11.9071 14.2211C12.1475 14.1764 12.357 14.0517 12.5352 13.8465L13.1364 13.0436C13.3948 12.6957 13.5906 12.3879 13.7242 12.1203L13.9644 11.6249C14.0624 11.3928 14.125 11.228 14.1517 11.13C14.223 10.8001 14.1963 10.4388 14.0715 10.0461C13.9647 9.6803 13.791 9.28341 13.5505 8.8552L12.5219 6.76771L12.4684 6.7008L12.3883 6.55361C12.299 6.42863 12.2322 6.34834 12.1879 6.31274C12.0898 6.21452 11.9252 6.08981 11.6933 5.9378C11.6044 5.87544 11.533 5.81308 11.4798 5.75072C11.4264 5.77749 11.3596 5.80425 11.2795 5.83101L10.9051 5.9113C10.7448 5.9469 10.6516 5.96483 10.6246 5.96483L10.0902 6.04512C10.028 6.05395 9.95208 6.07643 9.86338 6.11202L9.63601 6.19231C9.39581 6.29936 9.12408 6.47332 8.82109 6.71418L8.0329 7.34284C7.88167 7.48575 7.7569 7.58826 7.65911 7.65088C7.50788 7.77559 7.35185 7.87381 7.19154 7.945C7.01333 8.04322 6.8084 8.08337 6.57701 8.0657C6.42552 8.04777 6.24303 7.99425 6.02902 7.90513C5.84226 7.81601 5.58843 7.62867 5.26781 7.34284C4.74226 6.82552 4.38183 6.5132 4.18572 6.40614L4.15873 6.39303C3.98079 6.27715 3.82929 6.25922 3.70479 6.33924C3.58883 6.41069 3.49531 6.55334 3.42398 6.76771C3.40634 6.91035 3.45524 7.08003 3.57119 7.27593C3.66017 7.43651 3.78494 7.60592 3.94499 7.78469C4.08739 7.94527 4.37702 8.23083 4.81333 8.6411C5.0717 8.92666 5.32098 9.16753 5.56145 9.3637C5.82863 9.55987 6.06482 9.67147 6.26975 9.69823C6.4656 9.72499 6.67053 9.66692 6.88401 9.52427C6.91981 9.50634 7.08894 9.38136 7.39193 9.14933C7.46326 9.0958 7.60995 9.00213 7.83251 8.86859L8.79464 8.29319L8.96805 8.22628L8.83445 8.36009C8.62071 8.56536 8.33589 8.80623 7.97973 9.08242L7.57895 9.40384C7.30269 9.65354 7.1381 9.80073 7.0844 9.84543C6.81721 10.0416 6.53239 10.1353 6.22941 10.1264C5.93551 10.1173 5.61489 9.98807 5.26781 9.73837C5.08078 9.60456 4.80478 9.3637 4.43954 9.01551C4.01178 8.65877 3.70024 8.37321 3.5044 8.15937C3.30855 7.94527 3.15679 7.7491 3.05019 7.57059C2.86316 7.23151 2.78754 6.92374 2.82281 6.64728C2.87625 6.45111 2.93423 6.29936 2.99675 6.19231L3.06354 6.08526L3.18378 5.96483C2.09741 4.10027 1.37574 2.74447 1.01932 1.89689L0.79248 1.16091L1.32685 1.72266C1.89702 2.45409 2.73838 3.76546 3.85174 5.65706C3.88727 5.64822 3.92308 5.64367 3.95834 5.64367L4.25251 5.71058L4.47935 5.81763C4.48817 5.81763 4.49699 5.82218 4.50634 5.83101C4.71127 5.93806 4.92047 6.08981 5.13422 6.28598C5.27663 6.41096 5.47274 6.59375 5.72203 6.83462C6.24758 7.30751 6.63954 7.46354 6.89737 7.30296C7.03096 7.24061 7.26261 7.07093 7.59231 6.79447L8.38051 6.15217C8.7543 5.86661 9.07519 5.6616 9.34237 5.53636L9.63601 5.44295C9.76078 5.38943 9.85884 5.36266 9.93017 5.36266L10.825 5.22885L11.2127 5.24223C11.3997 5.2599 11.5378 5.30004 11.6265 5.36266C11.7158 5.35383 11.8224 5.36721 11.9474 5.40254C12.1168 5.44724 12.2592 5.50076 12.3746 5.56339C12.5352 5.64367 12.6373 5.71941 12.6822 5.79087C12.7444 5.84439 12.8468 5.96483 12.9894 6.15217L13.1628 6.44656L14.1781 8.52067C14.4365 9.01123 14.6235 9.45737 14.7395 9.85881C14.8907 10.3226 14.9311 10.7554 14.8597 11.1565C14.9129 11.1477 14.9797 11.1389 15.0601 11.13H15.6746C16.2357 11.1747 17.1265 11.1656 18.3465 11.1033L20.15 11.0364L20.5238 11.0631ZM18.9476 17.2186C19.09 17.2186 19.1614 17.2989 19.1614 17.4594V19.453C19.1614 19.5153 19.1392 19.5691 19.0946 19.6138C19.0588 19.6585 19.0102 19.6807 18.9476 19.6807C18.7964 19.6807 18.7203 19.605 18.7203 19.453V17.4594C18.7203 17.2989 18.7961 17.2186 18.9476 17.2186ZM18.7203 20.1625C18.7203 20.0107 18.7961 19.935 18.9476 19.935C19.09 19.935 19.1614 20.0107 19.1614 20.1625V20.2559C19.1614 20.3182 19.1392 20.372 19.0946 20.4167C19.0588 20.4614 19.0102 20.4836 18.9476 20.4836C18.7964 20.4836 18.7203 20.4079 18.7203 20.2559V20.1625ZM10.2508 1.1205L10.1704 1.20106L10.1036 1.29473C10.0859 1.33032 10.0504 1.39295 9.99697 1.48207L9.90319 1.68279L9.83639 1.89689C9.76505 2.20921 9.76078 2.48567 9.82303 2.72627C9.82303 2.77096 9.84067 2.83787 9.87674 2.92699L9.94353 3.11459L10.2508 3.64985L10.4242 3.85057L10.5044 3.89071L10.6379 3.9975C10.7093 4.02426 10.8116 4.06895 10.9455 4.13131L11.0922 4.1851L11.2661 4.19822C11.4173 4.22498 11.6399 4.22043 11.9341 4.1851C12.2189 4.13158 12.4193 4.07805 12.5352 4.02453C12.8647 3.87305 13.1187 3.63192 13.2964 3.30193C13.4388 3.00754 13.5193 2.71315 13.5372 2.41876C13.546 1.88351 13.4124 1.44192 13.1364 1.09401C12.9405 0.844042 12.6955 0.683466 12.4016 0.612277L11.8539 0.424937C11.8005 0.505226 11.6757 0.567583 11.4798 0.612277L11.0387 0.705946C10.7184 0.759472 10.4557 0.897568 10.2508 1.1205ZM9.60955 0.732709L9.72979 0.612277C10.0413 0.291124 10.4376 0.0858534 10.9188 -0.00326657L11.1723 -0.0300293C11.2971 -0.0300293 11.4128 -0.0166479 11.5199 0.0101149C11.7601 0.0992348 11.8806 0.206286 11.8806 0.331268H11.9207C12.0631 0.331268 12.2456 0.348931 12.4684 0.384526C12.8246 0.402457 13.1409 0.558484 13.4169 0.852874C13.8001 1.25432 13.9959 1.78502 14.0047 2.44553C14.0224 2.82904 13.9468 3.20371 13.7774 3.56956C13.6796 3.78366 13.5503 3.97555 13.3902 4.14496C13.2387 4.30554 13.0383 4.45273 12.789 4.58654L12.0273 4.81403C11.6711 4.86755 11.3906 4.88094 11.1859 4.85417C10.9188 4.84534 10.6158 4.75167 10.2775 4.57316L9.96999 4.34568L9.68944 4.05129L9.55585 3.85057C9.54703 3.83264 9.46234 3.68116 9.30202 3.39534L9.15507 3.00754L9.12862 2.87373C9.03938 2.51698 9.04419 2.1332 9.14198 1.72266L9.35546 1.14753C9.4268 1.03165 9.48024 0.942261 9.51604 0.879904L9.60955 0.732709ZM11.3863 0.973574C11.4486 0.991505 11.4929 1.03165 11.5199 1.09401C11.5466 1.14753 11.5509 1.20561 11.5333 1.26796C11.4887 1.37502 11.4173 1.42854 11.3195 1.42854L11.2391 1.41516C11.1769 1.41516 11.1234 1.39295 11.0791 1.34825C11.0344 1.30356 11.0123 1.25003 11.0123 1.18741C11.0123 1.03593 11.0836 0.959925 11.2257 0.960192L11.3863 0.973574ZM11.9739 1.22782L12.1743 1.38813C12.3169 1.54871 12.4238 1.70045 12.4949 1.84336C12.5219 1.89689 12.5261 1.95496 12.5082 2.01732C12.4815 2.07968 12.4414 2.12437 12.3883 2.15113L12.2945 2.16452C12.1967 2.16452 12.1254 2.12437 12.081 2.04408C12.0276 1.9282 11.9474 1.82115 11.8403 1.72266C11.8136 1.68707 11.7735 1.65121 11.7203 1.61588C11.5955 1.52676 11.5731 1.41971 11.6535 1.29473C11.7425 1.16974 11.8494 1.14753 11.9739 1.22782ZM12.9894 11.13C13.0517 11.13 13.1051 11.1523 13.1497 11.1969C13.1944 11.2416 13.2165 11.2952 13.2165 11.3573C13.2165 11.4108 13.1944 11.4598 13.1497 11.5047C13.1051 11.5494 13.052 11.5716 12.9894 11.5716C12.9181 11.5716 12.8604 11.5494 12.8158 11.5047C12.7711 11.46 12.749 11.411 12.749 11.3573C12.749 11.2949 12.7711 11.2414 12.8158 11.1969C12.8604 11.1523 12.9181 11.13 12.9894 11.13ZM11.8937 13.3781C11.9383 13.4228 11.9605 13.4763 11.9605 13.5387C11.9605 13.6101 11.9383 13.6679 11.8937 13.7126C11.8494 13.7573 11.8002 13.7795 11.747 13.7795C11.6848 13.7795 11.6311 13.7573 11.5867 13.7126C11.5421 13.6679 11.5199 13.6101 11.5199 13.5387C11.5199 13.4763 11.5421 13.4225 11.5867 13.3781C11.6311 13.3334 11.6845 13.3112 11.747 13.3112C11.8005 13.3112 11.8494 13.3334 11.8937 13.3781ZM7.80606 17.8609C7.85068 17.9056 7.87286 17.9591 7.87286 18.0214C7.87286 18.0661 7.85068 18.1194 7.80606 18.1818C7.74381 18.2264 7.6901 18.2487 7.64575 18.2487C7.59231 18.2487 7.53434 18.2264 7.47208 18.1818C7.42746 18.1194 7.40529 18.0659 7.40529 18.0214C7.40529 17.9591 7.42746 17.9053 7.47208 17.8609C7.5167 17.8164 7.57468 17.794 7.64575 17.794C7.708 17.794 7.76144 17.8162 7.80606 17.8609ZM12.2012 12.602C12.1566 12.5664 12.1344 12.5129 12.1344 12.4414C12.1344 12.3791 12.1566 12.3298 12.2012 12.294C12.2368 12.2493 12.2857 12.227 12.3482 12.227C12.4195 12.227 12.4772 12.2493 12.5219 12.294C12.5662 12.3386 12.5887 12.3876 12.5887 12.4414C12.5887 12.5038 12.5662 12.5573 12.5219 12.602C12.4772 12.6467 12.4193 12.6689 12.3482 12.6689C12.2857 12.6689 12.2368 12.6464 12.2012 12.602ZM6.60373 20.3897C6.60373 20.3273 6.62591 20.2738 6.67053 20.2294C6.71515 20.1847 6.77313 20.1625 6.8442 20.1625C6.90645 20.1625 6.95989 20.1847 7.00451 20.2294C7.04913 20.2741 7.07131 20.3273 7.07131 20.3897C7.07131 20.4432 7.04913 20.4925 7.00451 20.5371C6.95989 20.5818 6.90672 20.6041 6.8442 20.6041C6.77286 20.6041 6.71515 20.5818 6.67053 20.5371C6.62591 20.4925 6.60373 20.4435 6.60373 20.3897ZM6.26975 21.7278C6.22513 21.6831 6.20296 21.6299 6.20296 21.5675C6.20296 21.4961 6.22513 21.4425 6.26975 21.4069C6.30556 21.3622 6.35418 21.34 6.41644 21.34C6.48778 21.34 6.54549 21.3622 6.59037 21.4069C6.63473 21.4516 6.65717 21.5052 6.65717 21.5675C6.65717 21.6122 6.63473 21.6655 6.59037 21.7278C6.52812 21.7725 6.47014 21.7947 6.41644 21.7947C6.36273 21.7947 6.31437 21.7725 6.26975 21.7278ZM14.2051 18.2487C14.2051 18.3022 14.1827 18.3514 14.1383 18.3961C14.0937 18.4408 14.0357 18.463 13.9644 18.463C13.9021 18.463 13.8532 18.4408 13.8177 18.3961C13.7731 18.3605 13.7509 18.3113 13.7509 18.2487C13.7509 18.1772 13.7731 18.1239 13.8177 18.0884C13.8535 18.0437 13.9021 18.0214 13.9644 18.0214C14.0357 18.0214 14.0934 18.0437 14.1383 18.0884C14.1827 18.1328 14.2051 18.1863 14.2051 18.2487ZM13.9246 19.2659C13.9689 19.2659 14.0224 19.2881 14.0849 19.3328C14.1295 19.3952 14.1517 19.4487 14.1517 19.4934C14.1517 19.5469 14.1295 19.605 14.0849 19.6674C14.0226 19.7121 13.9689 19.7343 13.9246 19.7343C13.8711 19.7343 13.8132 19.7121 13.7509 19.6674C13.7063 19.605 13.6841 19.5469 13.6841 19.4934C13.6841 19.4487 13.7063 19.3952 13.7509 19.3328C13.8132 19.2881 13.8711 19.2659 13.9246 19.2659ZM13.8711 20.9918C13.8177 20.9918 13.7597 20.9696 13.6972 20.9249C13.6529 20.8626 13.6304 20.8091 13.6304 20.7646C13.6304 20.7023 13.6529 20.6485 13.6972 20.6041C13.7418 20.5594 13.7998 20.5371 13.8711 20.5371C13.9334 20.5371 13.9823 20.5594 14.0181 20.6041C14.0627 20.6396 14.0849 20.6932 14.0849 20.7646C14.0849 20.827 14.0627 20.8805 14.0181 20.9249C13.9735 20.9696 13.9246 20.9918 13.8711 20.9918ZM13.9644 22.1697C13.9289 22.2144 13.88 22.2366 13.8177 22.2366C13.7464 22.2366 13.6929 22.2144 13.6574 22.1697C13.6128 22.1338 13.5906 22.0806 13.5906 22.0091C13.5906 21.9467 13.6128 21.8975 13.6574 21.8616C13.6929 21.8169 13.7464 21.7947 13.8177 21.7947C13.88 21.7947 13.9291 21.8169 13.9644 21.8616C14.009 21.8975 14.0312 21.9465 14.0312 22.0091C14.0312 22.0803 14.009 22.1338 13.9644 22.1697ZM16.4762 22.4105C16.4762 22.3482 16.4984 22.2989 16.543 22.2631C16.5785 22.2184 16.6274 22.1962 16.6899 22.1962C16.7613 22.1962 16.819 22.2184 16.8636 22.2631C16.908 22.3078 16.9304 22.3567 16.9304 22.4105C16.9304 22.4729 16.908 22.5264 16.8636 22.5711C16.819 22.6158 16.761 22.638 16.6899 22.638C16.6277 22.638 16.5785 22.6158 16.543 22.5711C16.4984 22.5353 16.4762 22.4817 16.4762 22.4105ZM15.688 22.3035C15.688 22.357 15.6658 22.4151 15.6212 22.4774C15.5589 22.5221 15.5052 22.5444 15.4609 22.5444C15.4074 22.5444 15.3495 22.5221 15.2872 22.4774C15.2426 22.4151 15.2204 22.357 15.2204 22.3035C15.2204 22.2588 15.2426 22.2053 15.2872 22.1429C15.3495 22.0982 15.4074 22.076 15.4609 22.076C15.5052 22.076 15.5587 22.0982 15.6212 22.1429C15.6658 22.2053 15.688 22.2588 15.688 22.3035ZM7.24497 18.9846C7.30723 18.9846 7.36067 19.0068 7.40529 19.0515C7.44991 19.0962 7.47208 19.1452 7.47208 19.199C7.47208 19.2614 7.44991 19.3149 7.40529 19.3596C7.36067 19.4043 7.3075 19.4265 7.24497 19.4265C7.17364 19.4265 7.11593 19.4043 7.07131 19.3596C7.02669 19.3149 7.00451 19.2614 7.00451 19.199C7.00451 19.1455 7.02669 19.0965 7.07131 19.0515C7.11593 19.0071 7.17364 18.9846 7.24497 18.9846Z" fill="white"/>
</g>
</g>
</g>
</g>
</g>
</g>
<defs>
<clipPath id="clip0_2698_958">
<rect width="78.5581" height="24" fill="white" transform="translate(0.720947)"/>
</clipPath>
<clipPath id="clip1_2698_958">
<rect width="78.6566" height="24.0301" fill="white" transform="translate(0.67334)"/>
</clipPath>
<clipPath id="clip2_2698_958">
<rect width="78.4184" height="24.0903" fill="white" transform="translate(0.79248 -0.0300293)"/>
</clipPath>
<clipPath id="clip3_2698_958">
<rect width="78.4184" height="24.0903" fill="white" transform="translate(0.79248 -0.0300293)"/>
</clipPath>
<clipPath id="clip4_2698_958">
<rect width="55.5529" height="9.20179" fill="white" transform="translate(23.658 7.41431)"/>
</clipPath>
<clipPath id="clip5_2698_958">
<rect width="55.5529" height="9.20179" fill="white" transform="translate(23.658 7.41431)"/>
</clipPath>
<clipPath id="clip6_2698_958">
<rect width="55.5529" height="9.20179" fill="white" transform="translate(23.658 7.41431)"/>
</clipPath>
<clipPath id="clip7_2698_958">
<rect width="55.5529" height="9.20179" fill="white" transform="translate(23.658 7.41431)"/>
</clipPath>
<clipPath id="clip8_2698_958">
<rect width="20.6968" height="24.0903" fill="white" transform="translate(0.79248 -0.0300293)"/>
</clipPath>
<clipPath id="clip9_2698_958">
<rect width="20.6968" height="24.0903" fill="white" transform="translate(0.79248 -0.0300293)"/>
</clipPath>
</defs>
</svg>
