<svg width="131" height="40" viewBox="0 0 131 40" fill="none" xmlns="http://www.w3.org/2000/svg">
<g clip-path="url(#clip0_2698_654)">
<g clip-path="url(#clip1_2698_654)">
<g clip-path="url(#clip2_2698_654)">
<g clip-path="url(#clip3_2698_654)">
<g clip-path="url(#clip4_2698_654)">
<g clip-path="url(#clip5_2698_654)">
<g clip-path="url(#clip6_2698_654)">
<g clip-path="url(#clip7_2698_654)">
<path d="M45.1324 16.0867C44.5045 16.0867 44.0416 16.2696 43.7437 16.6352C43.4429 17.0009 43.2925 17.6518 43.2925 18.5879V21.1769H46.9286V18.5441C46.9286 17.9297 46.8555 17.4353 46.7095 17.0609C46.5635 16.6894 46.3634 16.4334 46.1093 16.293C45.8523 16.1555 45.5267 16.0867 45.1324 16.0867ZM46.9286 25.3675V24.2047H43.2925V25.3675C43.2925 26.1135 43.0954 26.662 42.7011 27.013C42.3068 27.3641 41.6278 27.5396 40.664 27.5396C40.2551 27.5396 39.9193 27.4811 39.6564 27.3641C39.3936 27.2471 39.1643 27.0496 38.9686 26.7717C38.77 26.4938 38.624 26.0871 38.5306 25.5518C38.4342 25.0194 38.3612 24.3758 38.3115 23.6211C38.259 22.8692 38.2327 21.9156 38.2327 20.76C38.2327 19.7508 38.3393 18.8249 38.5525 17.9824C38.7627 17.1428 39.0475 16.4305 39.4067 15.8454C39.763 15.2603 40.1675 14.744 40.6202 14.2964C41.0729 13.8517 41.5665 13.5051 42.1009 13.2564C42.6325 13.0078 43.1508 12.8205 43.6561 12.6948C44.1584 12.5719 44.6651 12.5105 45.1762 12.5105C45.7895 12.5105 46.3956 12.5938 46.9943 12.7606C47.593 12.9302 48.199 13.2199 48.8123 13.6294C49.4256 14.039 49.963 14.5465 50.4244 15.1521C50.883 15.7606 51.2582 16.5475 51.5503 17.5129C51.8424 18.4782 51.9884 19.5606 51.9884 20.76C51.9884 22.6908 51.9197 24.1198 51.7825 25.0472C51.6423 25.9774 51.4087 26.6254 51.0816 26.9911C50.7515 27.3568 50.2434 27.5396 49.557 27.5396C48.5933 27.5396 47.9142 27.3641 47.52 27.013C47.1257 26.662 46.9286 26.1135 46.9286 25.3675ZM53.8283 14.0243C53.8283 13.5417 54.0357 13.1438 54.4504 12.8308C54.868 12.5148 55.4565 12.3569 56.2159 12.3569C57.8075 12.3569 58.6034 12.9127 58.6034 14.0243C58.6034 14.6387 58.4019 15.0702 57.9988 15.3188C57.5987 15.5675 57.0044 15.6918 56.2159 15.6918C55.5295 15.6918 54.96 15.5602 54.5073 15.2969C54.0547 15.0336 53.8283 14.6094 53.8283 14.0243ZM58.5815 19.4875V25.192C58.5815 26.0696 58.399 26.6795 58.0339 27.0218C57.6688 27.367 57.0263 27.5396 56.1063 27.5396C55.2448 27.5396 54.6563 27.3377 54.3409 26.934C54.0284 26.5333 53.8721 25.8721 53.8721 24.9506V19.5533C53.8721 18.8073 54.0722 18.2076 54.4723 17.7542C54.8753 17.3008 55.4127 17.074 56.0844 17.074C56.873 17.074 57.4863 17.2452 57.9244 17.5875C58.3624 17.9326 58.5815 18.566 58.5815 19.4875ZM76.2536 16.3061V24.2485C76.2536 25.0823 76.1514 25.7434 75.947 26.232C75.7425 26.7234 75.4622 27.0642 75.1059 27.2544C74.7466 27.4445 74.275 27.5396 73.6909 27.5396C72.8293 27.5396 72.2058 27.3085 71.8203 26.8463C71.4318 26.387 71.2303 25.5723 71.2157 24.4021L71.1719 16.3061H69.3101C68.3901 16.3061 67.7009 16.1599 67.2423 15.8673C66.7809 15.5748 66.5502 15.0555 66.5502 14.3096C66.5502 13.8561 66.6422 13.4978 66.8262 13.2345C67.0072 12.9712 67.2803 12.784 67.6454 12.6728C68.0104 12.5646 68.4996 12.5105 69.1129 12.5105H78.4878C79.3056 12.5105 79.897 12.6567 80.2621 12.9493C80.6271 13.2418 80.8097 13.7464 80.8097 14.4631C80.8097 14.9458 80.7045 15.3217 80.4943 15.5909C80.2811 15.8629 79.9992 16.0502 79.6488 16.1526C79.2983 16.2549 78.8456 16.3061 78.2907 16.3061H76.2536ZM85.3657 27.6712C83.5842 27.6712 82.1122 27.2105 80.9499 26.289C79.7904 25.3675 79.2107 24.1096 79.2107 22.5153C79.2107 20.7893 79.7831 19.4246 80.9279 18.4212C82.0757 17.4207 83.555 16.9205 85.3657 16.9205C87.0742 16.9205 88.3257 17.2232 89.12 17.8288C89.9174 18.4373 90.316 19.2681 90.316 20.3212C90.316 20.526 90.2897 20.7235 90.2372 20.9136C90.1875 21.1038 90.1072 21.2895 89.9962 21.4709C89.8881 21.6552 89.7421 21.8234 89.5581 21.9755C89.3771 22.1306 89.1697 22.2695 88.9361 22.3924C88.7024 22.5182 88.425 22.6133 88.1037 22.6776C87.7824 22.7449 87.4393 22.7785 87.0742 22.7785L83.9857 22.8005C84.1318 23.2685 84.3946 23.6371 84.7743 23.9063C85.154 24.1783 85.6358 24.3144 86.22 24.3144C86.8479 24.3144 87.4904 24.2339 88.1475 24.073C88.425 23.9999 88.7272 23.8829 89.0543 23.722C89.3844 23.5611 89.6224 23.4806 89.7684 23.4806C90.0167 23.4806 90.2094 23.5538 90.3467 23.7C90.4869 23.8463 90.5569 24.0291 90.5569 24.2485C90.5569 24.5118 90.4401 24.8292 90.2065 25.2008C89.9728 25.5752 89.6472 25.9482 89.2296 26.3197C88.8148 26.6942 88.2643 27.013 87.578 27.2763C86.8917 27.5396 86.1542 27.6712 85.3657 27.6712ZM83.8762 21.3963C84.8838 21.3817 85.4314 21.3744 85.519 21.3744C85.7381 21.3744 85.8987 21.2427 86.0009 20.9794C86.0739 20.7893 86.1104 20.526 86.1104 20.1896C86.1104 19.2681 85.833 18.8073 85.2781 18.8073C85.0736 18.8073 84.8721 18.917 84.6735 19.1364C84.4779 19.3558 84.307 19.6659 84.161 20.0667C84.015 20.4704 83.92 20.9136 83.8762 21.3963ZM96.2958 27.6712C95.1422 27.6712 94.1857 27.1988 93.4264 26.2539C92.667 25.3119 92.2874 24.0218 92.2874 22.3836C92.2874 20.7161 92.6627 19.388 93.4132 18.3992C94.1667 17.4134 95.1276 16.9205 96.2958 16.9205C97.4786 16.9205 98.5738 17.3373 99.5814 18.1711C99.9757 17.4397 100.611 17.074 101.487 17.074C102.276 17.074 102.889 17.2452 103.327 17.5875C103.765 17.9326 103.984 18.566 103.984 19.4875V25.192C103.984 26.0696 103.802 26.6795 103.437 27.0218C103.071 27.367 102.429 27.5396 101.509 27.5396C100.545 27.5396 99.91 27.269 99.6033 26.7278C98.6687 27.3568 97.5662 27.6712 96.2958 27.6712ZM99.2747 24.3802V20.2773C99.0265 19.8532 98.7052 19.6411 98.311 19.6411C97.9313 19.6411 97.6246 19.919 97.391 20.4748C97.1574 21.0306 97.0405 21.6669 97.0405 22.3836C97.0405 23.0565 97.1501 23.6562 97.3691 24.1827C97.5881 24.7093 97.8948 24.9726 98.2891 24.9726C98.6979 24.9726 99.0265 24.7751 99.2747 24.3802ZM112.522 19.3339C112.522 18.9975 112.334 18.8293 111.957 18.8293C111.677 18.8293 111.427 18.9829 111.208 19.29C110.989 19.5972 110.821 19.9804 110.704 20.4397C110.59 20.9019 110.533 21.3817 110.533 21.879C110.533 22.6103 110.755 23.2027 111.199 23.6562C111.643 24.1096 112.245 24.3363 113.004 24.3363C113.749 24.3363 114.391 24.2485 114.932 24.073C115.151 24.0145 115.418 23.9048 115.733 23.7439C116.046 23.583 116.268 23.5026 116.399 23.5026C116.604 23.5026 116.772 23.5391 116.903 23.6123C117.037 23.6854 117.129 23.7732 117.179 23.8756C117.229 23.9779 117.254 24.0877 117.254 24.2047C117.254 24.4094 117.185 24.6581 117.048 24.9506C116.907 25.2432 116.691 25.5503 116.399 25.8721C116.107 26.1939 115.768 26.4894 115.383 26.7585C114.997 27.0306 114.518 27.2544 113.946 27.4299C113.377 27.6054 112.778 27.6932 112.15 27.6932C110.342 27.6932 108.854 27.2061 107.686 26.232C106.518 25.2607 105.934 23.9268 105.934 22.23C105.934 21.1476 106.199 20.2013 106.731 19.391C107.262 18.5777 107.995 17.9619 108.93 17.5436C109.865 17.1282 110.938 16.9205 112.15 16.9205C113.304 16.9205 114.257 17.055 115.011 17.3242C115.761 17.5962 116.297 17.959 116.618 18.4124C116.943 18.8658 117.105 19.407 117.105 20.036C117.105 20.3139 117.049 20.5991 116.938 20.8917C116.83 21.1842 116.662 21.4767 116.434 21.7693C116.207 22.0618 115.874 22.2988 115.436 22.4802C114.997 22.6645 114.486 22.7566 113.902 22.7566C113.639 22.7566 113.425 22.742 113.258 22.7127C113.089 22.6835 112.914 22.6206 112.733 22.524C112.549 22.4304 112.413 22.2739 112.325 22.0545C112.238 21.8351 112.194 21.5572 112.194 21.2208C112.194 20.9282 112.249 20.5743 112.36 20.1589C112.468 19.7405 112.522 19.4655 112.522 19.3339ZM126.037 25.7186L126.015 21.6596C126.015 20.8259 125.694 20.409 125.051 20.409C124.935 20.409 124.829 20.4236 124.736 20.4529C124.64 20.4821 124.552 20.5187 124.473 20.5626C124.391 20.6064 124.318 20.6679 124.254 20.7469C124.187 20.8288 124.128 20.9165 124.079 21.0101C124.026 21.1067 123.99 21.2208 123.969 21.3524C123.946 21.4841 123.934 21.6303 123.934 21.7912V24.2047C123.934 25.4041 123.742 26.2554 123.356 26.7585C122.968 27.2646 122.379 27.5177 121.591 27.5177C120.773 27.5177 120.174 27.2866 119.794 26.8243C119.415 26.3651 119.225 25.5503 119.225 24.3802L119.181 15.0336C119.181 14.1267 119.4 13.4612 119.838 13.037C120.276 12.6128 120.86 12.4008 121.591 12.4008C122.364 12.4008 122.949 12.5616 123.343 12.8834C123.737 13.2052 123.934 13.8561 123.934 14.8361V18.0175C125.015 17.3593 126.329 17.0302 127.877 17.0302C128.578 17.0302 129.14 17.2086 129.564 17.5655C129.987 17.9253 130.301 18.4929 130.505 19.2681C130.71 20.0433 130.812 21.0599 130.812 22.3178C130.812 22.9614 130.802 23.5172 130.781 23.9853C130.758 24.4533 130.725 24.8804 130.681 25.2666C130.637 25.6557 130.571 25.9745 130.484 26.2232C130.396 26.4718 130.294 26.6839 130.177 26.8594C130.06 27.035 129.911 27.1695 129.73 27.2632C129.546 27.3597 129.345 27.4299 129.126 27.4738C128.906 27.5177 128.644 27.5396 128.337 27.5396C127.519 27.5396 126.932 27.3889 126.576 27.0876C126.217 26.7892 126.037 26.3329 126.037 25.7186Z" fill="#4F46E5"/>
</g>
</g>
</g>
</g>
<g clip-path="url(#clip8_2698_654)">
<g clip-path="url(#clip9_2698_654)">
<path fill-rule="evenodd" clip-rule="evenodd" d="M32.2705 24.1926L32.2928 24.0365C32.0256 24.0663 31.7362 24.0811 31.424 24.0811H26.7265C25.6132 24.0365 24.5445 23.9771 23.5198 23.9026C22.733 23.858 22.0726 23.8206 21.5382 23.7911C21.7608 24.0436 21.7983 24.8839 21.6495 26.3113C21.605 26.8465 21.4567 28.98 21.2042 32.712C21.1895 32.9797 21.1526 33.4775 21.0929 34.2059C21.0484 34.8004 21.0265 35.2616 21.0265 35.589C21.0118 35.9905 21.0412 36.4142 21.1156 36.8603L21.182 37.1502L21.2715 37.3282C21.3605 37.4919 21.4571 37.6034 21.5609 37.6627C21.813 37.8411 22.1322 37.9972 22.5179 38.1315L24.8557 38.5998C24.8704 38.5998 25.0561 38.615 25.4124 38.6445C25.6203 38.6739 25.7984 38.6815 25.9472 38.6663C26.437 38.6663 27.1495 38.6217 28.0842 38.5329C28.7971 38.4883 29.1605 38.466 29.1757 38.466L30.1331 38.4433C30.4595 38.384 30.6746 38.3095 30.7783 38.2203C30.8972 38.1458 31.0308 37.9749 31.1795 37.7078C31.2984 37.4102 31.4022 36.8902 31.4913 36.1466L31.9366 28.5861C32.0995 26.1623 32.2109 24.6979 32.2705 24.1926ZM32.8049 19.5537H32.7599C32.686 19.5385 32.5667 19.5314 32.4041 19.5314L29.4201 19.6875C27.0453 19.762 25.5237 19.7767 24.8557 19.7321C24.3365 19.6875 23.9651 19.6206 23.7425 19.5314C23.5795 19.4569 23.4459 19.3904 23.3421 19.3307C23.164 19.8062 22.9191 20.2973 22.6074 20.8026C22.3104 21.3232 21.9617 21.8508 21.5609 22.3856C21.3383 22.7278 21.0706 23.0846 20.7589 23.4566C21.4122 23.412 22.3473 23.3674 23.5648 23.3228L31.4022 23.0775C31.9219 23.0476 32.3525 22.9882 32.6936 22.899C32.9309 22.8245 33.0939 22.7505 33.1834 22.676C33.2872 22.5721 33.3691 22.4378 33.4279 22.2741C33.4876 22.0364 33.5169 21.8134 33.5174 21.6051C33.5174 21.382 33.4951 21.1367 33.4502 20.8695C33.3313 20.2598 33.146 19.8436 32.8935 19.6206L32.8272 19.576L32.8049 19.5537ZM33.0048 18.4386L33.2947 18.5055L33.3615 18.5724L33.6728 18.7731C33.9404 19.0256 34.1555 19.353 34.3185 19.7544C34.4374 20.0965 34.5189 20.4159 34.5634 20.713C34.6084 21.0698 34.6231 21.3896 34.6084 21.6724C34.6084 22.0145 34.5563 22.3339 34.4521 22.6314C34.3332 23.003 34.1257 23.3005 33.8291 23.5235C33.5771 23.7019 33.28 23.8357 32.9385 23.9249C32.7751 23.9695 32.6045 23.9994 32.4259 24.0142L32.4482 24.1926C32.5079 25.1141 32.5373 26.5936 32.5373 28.6303L32.4709 33.225C32.4709 34.2509 32.4411 35.2616 32.3819 36.2581C32.3222 37.0463 32.2037 37.6707 32.0256 38.1315C31.8324 38.5624 31.6026 38.8751 31.3349 39.0682C31.216 39.1574 31.0237 39.239 30.7561 39.3135C30.4595 39.388 30.2738 39.425 30.1994 39.425C29.9474 39.4545 29.5983 39.4696 29.1534 39.4696L28.1514 39.5584C26.9932 39.6623 26.2513 39.7221 25.9249 39.7373C25.7615 39.752 25.5535 39.7449 25.301 39.715L23.4535 39.4919C22.993 39.4174 22.5628 39.3282 22.1621 39.2239C21.5979 39.016 21.1526 38.793 20.8262 38.5548C20.5888 38.3617 20.3955 38.1386 20.2473 37.8857C20.1435 37.6779 20.0838 37.5365 20.0687 37.4624L19.9796 37.061C19.891 36.5703 19.846 36.0721 19.846 35.5667C19.9351 34.2732 19.9948 33.2919 20.0246 32.6228C20.1876 29.7235 20.3292 27.5825 20.4476 26.1998C20.5069 25.6792 20.6106 25.1663 20.7589 24.6609C20.8929 24.1854 21.0337 23.8803 21.182 23.7465C20.9446 23.7318 20.7366 23.7166 20.559 23.7019C20.5291 23.7318 20.4993 23.7612 20.4699 23.7911C20.2179 24.0588 19.9427 24.2742 19.6456 24.4379C19.6309 25.1962 19.5864 26.2591 19.5121 27.6267C19.4528 29.0094 19.3562 30.2735 19.223 31.4181L18.6437 36.9936C18.4954 37.7372 18.3097 38.3242 18.0871 38.756C17.9388 39.0829 17.7161 39.3728 17.4191 39.6258C17.1225 39.9081 16.7436 40.0642 16.2836 40.0941C15.987 40.1235 15.5862 40.0495 15.0812 39.8711C14.5914 39.6775 14.2574 39.3728 14.0793 38.9567C13.9016 38.5851 13.8121 38.1685 13.8126 37.7078C13.7979 37.4553 13.8201 37.061 13.8794 36.5257L15.1485 29.2775C15.2968 28.5937 15.3787 28.1771 15.393 28.0286C15.4526 27.5379 15.4224 27.1958 15.3039 27.0027C15.2892 26.9433 15.2376 26.8688 15.1485 26.7796L15.059 26.7346C15.059 26.8238 15.0514 26.9282 15.0372 27.0473C15.0078 27.5227 14.9036 28.0656 14.725 28.6753C14.4431 29.6267 14.0646 30.7494 13.5899 32.043C13.3227 32.7714 12.9366 33.8049 12.4321 35.143L11.9418 36.6372C11.7192 37.3358 11.5259 37.8416 11.3634 38.1538C11.1853 38.466 11.0218 38.7189 10.8735 38.9121C10.6059 39.1645 10.3316 39.343 10.0493 39.4469C9.81193 39.5508 9.49265 39.603 9.09232 39.6035C8.7806 39.574 8.50585 39.5218 8.26805 39.4469L7.84501 39.2912C7.65219 39.202 7.5186 39.1128 7.44468 39.0236C7.19264 38.8006 7.02877 38.5031 6.9544 38.1315C6.86578 37.7301 6.90274 37.2024 7.06573 36.5476L9.00326 29.7681C10.3837 25.0548 11.5117 21.2411 12.3871 18.3271L13.7453 13.7105L13.9239 13.086L13.6117 15.5393L12.966 18.5278C12.2834 21.3232 11.2814 25.1739 9.96022 30.0799L8.13491 36.8603C8.01601 37.3063 7.98662 37.6556 8.0454 37.9085C8.10507 38.057 8.1643 38.1462 8.22397 38.1761L8.37938 38.2876L8.6243 38.3768C8.86209 38.4361 9.04734 38.466 9.18093 38.466C9.34436 38.466 9.50022 38.4437 9.64895 38.3991C9.79724 38.3099 9.91613 38.2131 10.0052 38.1088C10.1241 37.9602 10.2278 37.7894 10.3169 37.5962C10.4652 37.3286 10.6357 36.8826 10.8286 36.2581L11.3411 34.7416C11.8456 33.3887 12.217 32.3552 12.4544 31.6411C12.9144 30.3476 13.2853 29.2476 13.5677 28.3408C13.7159 27.8055 13.8869 27.2926 14.0793 26.8019C14.139 26.6382 14.1982 26.4968 14.2579 26.3782C14.2285 26.3635 14.2062 26.3488 14.1906 26.3336C14.013 26.2591 13.9235 26.1628 13.9239 26.0437C13.9092 25.9098 13.9907 25.7983 14.1684 25.7091C14.3465 25.6199 14.5843 25.5677 14.8813 25.553L15.3489 25.6195L15.8165 25.8206C16.0988 25.9991 16.284 26.2074 16.3731 26.4451C16.581 26.8764 16.6554 27.4563 16.5957 28.1842C16.5512 28.5411 16.455 29.0018 16.3058 29.5674L15.393 34.4516C15.3337 35.0016 15.2077 35.7527 15.0149 36.7042C14.9552 37.1801 14.933 37.5146 14.9477 37.7078C14.9477 38.0347 14.9998 38.2952 15.104 38.4883C15.1779 38.652 15.319 38.7859 15.5266 38.8893L15.9055 39.0008L16.0832 39.0236H16.2395C16.4768 38.9937 16.6554 38.9197 16.7739 38.8006C16.9667 38.6369 17.1003 38.4509 17.1742 38.243C17.3821 37.8715 17.5376 37.3804 17.6418 36.7706C17.7161 36.4285 17.7981 35.9156 17.8871 35.2322L18.421 31.2847C18.6588 29.4559 18.8218 28.207 18.9113 27.5379C19.0596 26.289 19.2003 25.3001 19.3344 24.5717C19.1411 24.631 18.9483 24.6681 18.755 24.6832C18.0131 24.7577 17.4267 24.5793 16.9965 24.148C16.5659 23.7166 16.3949 23.1742 16.4844 22.5199C16.4844 22.3861 16.5067 22.2599 16.5512 22.1408L16.6398 21.7839L16.8852 21.2041C16.8999 21.1595 17.0557 20.8026 17.3528 20.1336C17.5901 19.6576 17.917 19.0853 18.3324 18.4163L19.1781 17.0558C19.2671 16.9073 19.3415 16.736 19.4007 16.5429C19.4154 16.4091 19.4007 16.253 19.3566 16.0745C19.2529 15.7922 19.1046 15.5317 18.9113 15.294L18.2211 14.3127C18.1614 14.2533 18.0648 14.1267 17.9317 13.9335L17.9094 13.8443L17.9757 13.8889L18.3547 14.2011C18.6513 14.4688 18.9407 14.7587 19.223 15.0709C19.4902 15.3684 19.6906 15.6508 19.8242 15.918L19.9133 16.2525C19.928 16.2971 19.9355 16.4309 19.9355 16.6544C19.891 16.8921 19.8095 17.1299 19.6906 17.3676C19.6612 17.4568 19.5419 17.6874 19.3344 18.0594L18.9336 18.7954C18.503 19.5983 18.214 20.1706 18.0648 20.5127C17.8275 21.0926 17.6939 21.4418 17.6645 21.5609L17.4641 22.0962L17.3968 22.3638L17.375 22.6314C17.3456 23.003 17.4418 23.2858 17.6645 23.4789C17.9317 23.7019 18.2581 23.7764 18.6437 23.7019C19.0445 23.6274 19.3936 23.4196 19.6906 23.0775L20.6926 21.7393C21.1232 21.1595 21.4496 20.6465 21.6722 20.2005L22.0726 19.3748C22.236 18.9881 22.3402 18.7133 22.3847 18.5501C22.5036 18.0001 22.4591 17.398 22.2511 16.7436C22.073 16.1339 21.7836 15.4724 21.3828 14.7587L19.6684 11.2795L19.5793 11.168L19.4457 10.9227C19.297 10.7144 19.1856 10.5806 19.1117 10.5213C18.9483 10.3576 18.674 10.1497 18.2875 9.89636C18.1392 9.79243 18.0203 9.6885 17.9317 9.58457C17.8426 9.62918 17.7313 9.67378 17.5977 9.71838L16.9738 9.8522C16.7066 9.91152 16.5512 9.94141 16.5062 9.94141L15.6156 10.0752C15.5119 10.0899 15.3854 10.1274 15.2376 10.1867L14.8586 10.3205C14.4583 10.499 14.0054 10.7889 13.5004 11.1903L12.1868 12.2381C11.9347 12.4763 11.7268 12.6471 11.5638 12.7515C11.3117 12.9594 11.0517 13.1231 10.7845 13.2417C10.4875 13.4054 10.1459 13.4723 9.76028 13.4429C9.50779 13.413 9.20364 13.3238 8.84695 13.1752C8.53568 13.0267 8.11264 12.7145 7.57827 12.2381C6.70236 11.3759 6.10164 10.8554 5.77478 10.6769L5.7298 10.6551C5.43323 10.4619 5.18074 10.4321 4.97323 10.5654C4.77997 10.6845 4.62411 10.9223 4.50521 11.2795C4.47582 11.5173 4.55731 11.8001 4.75058 12.1266C4.89886 12.3942 5.10682 12.6766 5.37356 12.9745C5.61091 13.2421 6.09362 13.7181 6.82081 14.4019C7.25142 14.8778 7.66689 15.2792 8.06767 15.6062C8.51297 15.9331 8.90662 16.1191 9.24817 16.1637C9.57458 16.2084 9.91613 16.1116 10.2719 15.8738C10.3316 15.8439 10.6135 15.6356 11.1185 15.2489C11.2374 15.1597 11.4818 15.0036 11.8528 14.781L13.4563 13.822L13.7453 13.7105L13.5227 13.9335C13.1664 14.2756 12.6917 14.6771 12.0981 15.1374L11.4302 15.6731C10.9697 16.0893 10.6954 16.3346 10.6059 16.4091C10.1606 16.736 9.68591 16.8921 9.18093 16.8774C8.6911 16.8623 8.15673 16.6468 7.57827 16.2307C7.26656 16.0076 6.80656 15.6062 6.19782 15.0259C5.48489 14.4313 4.96566 13.9554 4.63925 13.599C4.31284 13.2421 4.0599 12.9152 3.88223 12.6177C3.57051 12.0525 3.44449 11.5396 3.50327 11.0788C3.59233 10.7519 3.68896 10.499 3.79317 10.3205L3.90449 10.1421L4.10488 9.94141C2.29426 6.83381 1.09149 4.57414 0.49745 3.16151L0.119385 1.93489L1.01 2.87114C1.96028 4.09018 3.36255 6.2758 5.21815 9.42846C5.27737 9.41374 5.33704 9.40615 5.39582 9.40615L5.88611 9.51766L6.26417 9.69608C6.27887 9.69608 6.29356 9.70367 6.30915 9.71838C6.6507 9.8968 6.99937 10.1497 7.35562 10.4767C7.59297 10.685 7.91982 10.9896 8.3353 11.3911C9.21121 12.1792 9.86448 12.4393 10.2942 12.1716C10.5169 12.0677 10.9029 11.7849 11.4524 11.3242L12.7661 10.2536C13.3891 9.77771 13.9239 9.43604 14.3692 9.22729L14.8586 9.07162C15.0666 8.98241 15.23 8.93781 15.3489 8.93781L16.8402 8.71478L17.4864 8.73708C17.7981 8.76652 18.0283 8.83343 18.1761 8.93781C18.3249 8.92309 18.5025 8.94539 18.7109 9.00427C18.9933 9.07876 19.2306 9.16796 19.423 9.27234C19.6906 9.40615 19.8607 9.53238 19.9355 9.65148C20.0393 9.74069 20.2098 9.94141 20.4476 10.2536L20.7366 10.7443L22.4288 14.2011C22.8594 15.0187 23.1711 15.7623 23.3644 16.4314C23.6164 17.2044 23.6837 17.9256 23.5648 18.5942C23.6534 18.5795 23.7647 18.5648 23.8988 18.5501H24.923C25.8581 18.6246 27.3428 18.6094 29.376 18.5055L32.3819 18.394L33.0048 18.4386ZM30.378 28.6976C30.6153 28.6976 30.7342 28.8315 30.7342 29.0991V32.4217C30.7342 32.5256 30.6973 32.6153 30.6229 32.6897C30.5632 32.7642 30.4822 32.8013 30.378 32.8013C30.1259 32.8013 29.999 32.675 29.999 32.4217V29.0991C29.999 28.8315 30.1255 28.6976 30.378 28.6976ZM29.999 33.6041C29.999 33.3512 30.1255 33.225 30.378 33.225C30.6153 33.225 30.7342 33.3512 30.7342 33.6041V33.7598C30.7342 33.8637 30.6973 33.9534 30.6229 34.0279C30.5632 34.1024 30.4822 34.1394 30.378 34.1394C30.1259 34.1394 29.999 34.0132 29.999 33.7598V33.6041ZM15.8832 1.86753L15.7492 2.00179L15.6379 2.15791C15.6085 2.21723 15.5493 2.32161 15.4602 2.47014L15.3039 2.80467L15.1926 3.16151C15.0737 3.68205 15.0666 4.14281 15.1703 4.54381C15.1703 4.6183 15.1997 4.72981 15.2598 4.87834L15.3711 5.19102L15.8832 6.08311L16.1722 6.41765L16.3058 6.48455L16.5285 6.66253C16.6474 6.70713 16.8179 6.78162 17.041 6.88555L17.2855 6.9752L17.5754 6.99706C17.8275 7.04166 18.1984 7.03408 18.6887 6.9752C19.1634 6.88599 19.4974 6.79678 19.6906 6.70758C20.2397 6.45511 20.6632 6.05323 20.9593 5.50325C21.1966 5.0126 21.3307 4.52195 21.3605 4.0313C21.3752 3.13921 21.1526 2.40323 20.6926 1.82337C20.3661 1.40677 19.9578 1.13914 19.468 1.02049L18.5551 0.708259C18.466 0.842073 18.2581 0.946002 17.9317 1.02049L17.1965 1.17661C16.6625 1.26582 16.2248 1.49598 15.8832 1.86753ZM14.8145 1.22121L15.0149 1.02049C15.5341 0.485237 16.1945 0.143119 16.9965 -0.00541377L17.4191 -0.0500183C17.6271 -0.0500183 17.8199 -0.027716 17.9985 0.0168886C18.3988 0.165422 18.5996 0.34384 18.5996 0.552144H18.6664C18.9038 0.552144 19.2079 0.581582 19.5793 0.640907C20.1729 0.670792 20.7001 0.930836 21.1601 1.42149C21.7987 2.09056 22.1251 2.97506 22.1398 4.07591C22.1692 4.71509 22.0432 5.33955 21.7608 5.9493C21.5979 6.30613 21.3823 6.62595 21.1156 6.9083C20.8631 7.17592 20.5291 7.42125 20.1137 7.64427L18.8441 8.02341C18.2505 8.11262 17.7829 8.13492 17.4418 8.09032C16.9965 8.0756 16.4915 7.91948 15.9278 7.62197L15.4152 7.24283L14.9477 6.75218L14.725 6.41765C14.7103 6.38776 14.5691 6.1353 14.302 5.65892L14.057 5.0126L14.013 4.78958C13.8642 4.195 13.8722 3.55537 14.0352 2.87114L14.391 1.91258C14.5099 1.71945 14.599 1.57047 14.6587 1.46654L14.8145 1.22121ZM17.7758 1.62265C17.8796 1.65254 17.9535 1.71945 17.9985 1.82337C18.043 1.91258 18.0501 2.00938 18.0207 2.1133C17.9464 2.29172 17.8275 2.38093 17.6645 2.38093L17.5304 2.35863C17.4267 2.35863 17.3376 2.32161 17.2637 2.24712C17.1893 2.17263 17.1524 2.08342 17.1524 1.97904C17.1524 1.72658 17.2713 1.59991 17.5082 1.60035L17.7758 1.62265ZM18.755 2.0464L19.089 2.31358C19.3268 2.58121 19.5049 2.83411 19.6234 3.0723C19.6684 3.16151 19.6755 3.2583 19.6456 3.36223C19.6011 3.46616 19.5343 3.54065 19.4457 3.58525L19.2894 3.60756C19.1264 3.60756 19.0075 3.54065 18.9336 3.40684C18.8445 3.2137 18.7109 3.03528 18.5324 2.87114C18.4878 2.81181 18.421 2.75204 18.3324 2.69316C18.1245 2.54463 18.0871 2.36621 18.2211 2.15791C18.3694 1.9496 18.5475 1.91258 18.755 2.0464ZM20.4476 18.5501C20.5514 18.5501 20.6405 18.5871 20.7148 18.6616C20.7892 18.7361 20.8262 18.8253 20.8262 18.9288C20.8262 19.018 20.7892 19.0996 20.7148 19.1746C20.6405 19.249 20.5518 19.2861 20.4476 19.2861C20.3287 19.2861 20.2326 19.249 20.1582 19.1746C20.0838 19.1001 20.0469 19.0184 20.0469 18.9288C20.0469 18.8249 20.0838 18.7356 20.1582 18.6616C20.2326 18.5871 20.3287 18.5501 20.4476 18.5501ZM18.6214 22.2969C18.6958 22.3714 18.7328 22.4606 18.7328 22.5645C18.7328 22.6836 18.6958 22.7799 18.6214 22.8544C18.5475 22.9289 18.4656 22.9659 18.377 22.9659C18.2732 22.9659 18.1837 22.9289 18.1098 22.8544C18.0354 22.7799 17.9985 22.6836 17.9985 22.5645C17.9985 22.4606 18.0354 22.3709 18.1098 22.2969C18.1837 22.2224 18.2728 22.1854 18.377 22.1854C18.466 22.1854 18.5475 22.2224 18.6214 22.2969ZM11.8087 29.7681C11.8831 29.8426 11.92 29.9318 11.92 30.0358C11.92 30.1103 11.8831 30.199 11.8087 30.303C11.7049 30.3774 11.6154 30.4145 11.5415 30.4145C11.4524 30.4145 11.3558 30.3774 11.2521 30.303C11.1777 30.199 11.1407 30.1098 11.1407 30.0358C11.1407 29.9318 11.1777 29.8422 11.2521 29.7681C11.3264 29.6941 11.4231 29.6566 11.5415 29.6566C11.6453 29.6566 11.7343 29.6937 11.8087 29.7681ZM19.134 21.0033C19.0596 20.944 19.0227 20.8548 19.0227 20.7357C19.0227 20.6318 19.0596 20.5497 19.134 20.4899C19.1932 20.4155 19.2747 20.3784 19.3789 20.3784C19.4978 20.3784 19.594 20.4155 19.6684 20.4899C19.7423 20.5644 19.7797 20.6461 19.7797 20.7357C19.7797 20.8396 19.7423 20.9289 19.6684 21.0033C19.594 21.0778 19.4974 21.1149 19.3789 21.1149C19.2747 21.1149 19.1932 21.0774 19.134 21.0033ZM9.80481 33.9828C9.80481 33.8789 9.84177 33.7897 9.91613 33.7156C9.9905 33.6412 10.0871 33.6041 10.2056 33.6041C10.3093 33.6041 10.3984 33.6412 10.4728 33.7156C10.5471 33.7901 10.5841 33.8789 10.5841 33.9828C10.5841 34.072 10.5471 34.1541 10.4728 34.2286C10.3984 34.3031 10.3098 34.3401 10.2056 34.3401C10.0867 34.3401 9.9905 34.3031 9.91613 34.2286C9.84177 34.1541 9.80481 34.0725 9.80481 33.9828ZM9.24817 36.2131C9.17381 36.1386 9.13685 36.0498 9.13685 35.9459C9.13685 35.8268 9.17381 35.7376 9.24817 35.6783C9.30785 35.6038 9.38889 35.5667 9.49265 35.5667C9.61154 35.5667 9.70773 35.6038 9.78254 35.6783C9.85646 35.7527 9.89387 35.8419 9.89387 35.9459C9.89387 36.0204 9.85646 36.1091 9.78254 36.2131C9.67879 36.2875 9.58215 36.3246 9.49265 36.3246C9.40314 36.3246 9.32254 36.2875 9.24817 36.2131ZM22.4738 30.4145C22.4738 30.5037 22.4364 30.5857 22.3625 30.6602C22.2881 30.7347 22.1915 30.7717 22.0726 30.7717C21.9688 30.7717 21.8873 30.7347 21.8281 30.6602C21.7537 30.6009 21.7168 30.5188 21.7168 30.4145C21.7168 30.2954 21.7537 30.2066 21.8281 30.1473C21.8878 30.0728 21.9688 30.0358 22.0726 30.0358C22.1915 30.0358 22.2876 30.0728 22.3625 30.1473C22.4364 30.2213 22.4738 30.3105 22.4738 30.4145ZM22.0062 32.1099C22.0801 32.1099 22.1692 32.1469 22.2734 32.2214C22.3478 32.3253 22.3847 32.4145 22.3847 32.489C22.3847 32.5782 22.3478 32.675 22.2734 32.779C22.1696 32.8534 22.0801 32.8905 22.0062 32.8905C21.9172 32.8905 21.8205 32.8534 21.7168 32.779C21.6424 32.675 21.6054 32.5782 21.6054 32.489C21.6054 32.4145 21.6424 32.3253 21.7168 32.2214C21.8205 32.1469 21.9172 32.1099 22.0062 32.1099ZM21.9172 34.9864C21.8281 34.9864 21.7315 34.9494 21.6273 34.8749C21.5533 34.771 21.5159 34.6818 21.5159 34.6077C21.5159 34.5038 21.5533 34.4142 21.6273 34.3401C21.7016 34.2656 21.7983 34.2286 21.9172 34.2286C22.0209 34.2286 22.1024 34.2656 22.1621 34.3401C22.2364 34.3994 22.2734 34.4886 22.2734 34.6077C22.2734 34.7117 22.2364 34.8009 22.1621 34.8749C22.0877 34.9494 22.0062 34.9864 21.9172 34.9864ZM22.0726 36.9495C22.0133 37.024 21.9318 37.061 21.8281 37.061C21.7092 37.061 21.6201 37.024 21.5609 36.9495C21.4865 36.8897 21.4496 36.801 21.4496 36.6819C21.4496 36.5779 21.4865 36.4959 21.5609 36.4361C21.6201 36.3616 21.7092 36.3246 21.8281 36.3246C21.9318 36.3246 22.0138 36.3616 22.0726 36.4361C22.1469 36.4959 22.1839 36.5775 22.1839 36.6819C22.1839 36.8005 22.1469 36.8897 22.0726 36.9495ZM26.2589 37.3509C26.2589 37.247 26.2959 37.1649 26.3702 37.1052C26.4294 37.0307 26.5109 36.9936 26.6151 36.9936C26.734 36.9936 26.8302 37.0307 26.9046 37.1052C26.9785 37.1796 27.0159 37.2613 27.0159 37.3509C27.0159 37.4549 26.9785 37.5441 26.9046 37.6185C26.8302 37.693 26.7336 37.7301 26.6151 37.7301C26.5114 37.7301 26.4294 37.693 26.3702 37.6185C26.2959 37.5588 26.2589 37.4696 26.2589 37.3509ZM24.9452 37.1725C24.9452 37.2617 24.9083 37.3585 24.8339 37.4624C24.7302 37.5369 24.6406 37.5739 24.5667 37.5739C24.4777 37.5739 24.381 37.5369 24.2773 37.4624C24.2029 37.3585 24.166 37.2617 24.166 37.1725C24.166 37.098 24.2029 37.0088 24.2773 36.9049C24.381 36.8304 24.4777 36.7934 24.5667 36.7934C24.6406 36.7934 24.7297 36.8304 24.8339 36.9049C24.9083 37.0088 24.9452 37.098 24.9452 37.1725ZM10.8735 31.6411C10.9773 31.6411 11.0664 31.6781 11.1407 31.7526C11.2151 31.8271 11.2521 31.9087 11.2521 31.9984C11.2521 32.1023 11.2151 32.1915 11.1407 32.266C11.0664 32.3405 10.9777 32.3775 10.8735 32.3775C10.7546 32.3775 10.6585 32.3405 10.5841 32.266C10.5097 32.1915 10.4728 32.1023 10.4728 31.9984C10.4728 31.9092 10.5097 31.8275 10.5841 31.7526C10.6585 31.6786 10.7546 31.6411 10.8735 31.6411Z" fill="#4F46E5"/>
</g>
</g>
</g>
</g>
</g>
</g>
<defs>
<clipPath id="clip0_2698_654">
<rect width="130.93" height="40" fill="white"/>
</clipPath>
<clipPath id="clip1_2698_654">
<rect width="131.094" height="40.0501" fill="white" transform="translate(-0.0793457)"/>
</clipPath>
<clipPath id="clip2_2698_654">
<rect width="130.697" height="40.1505" fill="white" transform="translate(0.119141 -0.0502014)"/>
</clipPath>
<clipPath id="clip3_2698_654">
<rect width="130.697" height="40.1505" fill="white" transform="translate(0.119141 -0.0502014)"/>
</clipPath>
<clipPath id="clip4_2698_654">
<rect width="92.5882" height="15.3363" fill="white" transform="translate(38.2283 12.3569)"/>
</clipPath>
<clipPath id="clip5_2698_654">
<rect width="92.5882" height="15.3363" fill="white" transform="translate(38.2283 12.3569)"/>
</clipPath>
<clipPath id="clip6_2698_654">
<rect width="92.5882" height="15.3363" fill="white" transform="translate(38.2283 12.3569)"/>
</clipPath>
<clipPath id="clip7_2698_654">
<rect width="92.5882" height="15.3363" fill="white" transform="translate(38.2283 12.3569)"/>
</clipPath>
<clipPath id="clip8_2698_654">
<rect width="34.4946" height="40.1505" fill="white" transform="translate(0.119141 -0.0502014)"/>
</clipPath>
<clipPath id="clip9_2698_654">
<rect width="34.4946" height="40.1505" fill="white" transform="translate(0.119141 -0.0502014)"/>
</clipPath>
</defs>
</svg>
